<svg width="64" height="63" viewBox="0 0 64 63" fill="none" xmlns="http://www.w3.org/2000/svg">
<path d="M29.7653 1.68421C23.6563 -0.529734 16.6835 0.324856 11.5674 3.91277C6.93941 7.15817 4.39086 12.2 4.39086 18.1095C4.39086 19.1858 5.26344 20.0584 6.33967 20.0584C7.4159 20.0584 8.28848 19.1858 8.28848 18.1095C8.28848 13.5077 10.2475 9.59917 13.8051 7.10409C17.8981 4.23386 23.5058 3.56149 28.4372 5.34863C37.0568 8.47222 40.7815 18.0647 37.4953 28.6735C36.0902 33.2008 33.4057 37.0918 29.9378 39.6302C25.9603 42.5419 22.832 46.9464 20.8924 52.3672C20.7964 52.6367 20.6883 52.9032 20.5684 53.1672C19.4917 55.5317 17.5707 57.353 15.2979 58.1618C13.3208 58.8639 11.2263 58.7557 9.3993 57.8495C5.97329 56.1598 4.14872 51.9185 5.05979 47.7664C5.29072 46.7149 4.6252 45.6757 3.57431 45.4457C2.52438 45.2123 1.48421 45.8798 1.25327 46.9313C-0.0573033 52.9046 2.58333 58.8327 7.67265 61.3438C9.25168 62.1258 10.9569 62.52 12.6821 62.52C13.9936 62.52 15.3178 62.2915 16.605 61.834C19.8668 60.6729 22.6044 58.1023 24.1162 54.7804C24.2814 54.4179 24.4295 54.0506 24.562 53.6813C26.238 48.9961 28.8937 45.225 32.2408 42.7752C36.3777 39.7471 39.5664 35.1497 41.218 29.8287C45.1517 17.1273 40.4419 5.55375 29.7653 1.68421Z" fill="#01252A"/>
<path d="M19.3061 14.5852C21.8819 12.6305 26.0791 12.4278 28.2243 15.2419C28.8752 16.0969 30.0966 16.2641 30.955 15.6112C31.8115 14.9588 31.9767 13.7365 31.3243 12.8805C28.0474 8.57896 21.5998 7.95145 16.9495 11.4812C12.021 15.2229 11.4013 21.9497 15.4411 27.8394C15.8187 28.39 16.4292 28.6857 17.0499 28.6857C17.4294 28.6857 17.8133 28.5746 18.1505 28.3442C19.0376 27.7352 19.2637 26.5225 18.6552 25.6349C16.285 22.1801 15.5673 17.4236 19.3061 14.5852Z" fill="#01252A"/>
<path d="M10.7474 34.9855C9.73114 34.6259 8.61885 35.157 8.25979 36.1704C7.78671 37.503 7.75602 38.9671 8.17258 40.2938C8.60667 41.6731 9.50751 42.8488 10.7075 43.602C11.6722 44.2106 12.764 44.5214 13.8845 44.5214C14.4107 44.5214 14.9432 44.4527 15.4709 44.3139C17.0781 43.8919 18.4603 42.8659 19.3587 41.4281C19.4128 41.3423 19.464 41.2561 19.5127 41.1693C19.5595 41.0865 19.6043 41.0027 19.6477 40.9184C20.0418 40.1476 20.509 39.4636 21.0352 38.8862C21.5794 38.2908 22.1884 37.808 22.8447 37.4523C23.8659 36.8988 24.7979 36.1709 25.6135 35.2885C26.448 34.3857 27.1369 33.3465 27.6612 32.1991C28.8095 29.6821 29.1028 27.0048 28.487 24.6612C27.821 22.1257 26.124 20.0818 23.7085 18.9056C22.7409 18.4345 21.5745 18.836 21.1034 19.805C20.6323 20.7727 21.0347 21.9386 22.0028 22.4102C23.4006 23.0904 24.3389 24.2115 24.718 25.6527C25.1063 27.1295 24.8924 28.8796 24.1168 30.58C23.7645 31.3503 23.3056 32.0446 22.7516 32.6434C22.2269 33.2115 21.634 33.6768 20.9889 34.0261C19.9478 34.5903 18.9958 35.3416 18.1573 36.2596C17.3958 37.0947 16.7298 38.0652 16.1783 39.1444L16.057 39.3578C15.6838 39.9542 15.125 40.3761 14.4814 40.5447C13.8811 40.7016 13.2799 40.6168 12.783 40.3035C12.2461 39.9659 12.001 39.4753 11.8904 39.1245C11.7257 38.6002 11.7404 38.0136 11.9323 37.4728C12.2928 36.4589 11.7618 35.3451 10.7474 34.9855Z" fill="#01252A"/>
<path d="M48.0953 23.2902C47.3207 24.0381 47.2997 25.2716 48.0476 26.0453C49.116 27.1508 49.7109 28.6158 49.7221 30.1714C49.7343 31.7153 49.1691 33.157 48.1304 34.2308C47.3826 35.0049 47.4035 36.2385 48.1782 36.9864C48.5558 37.3522 49.0439 37.534 49.5321 37.534C50.0422 37.534 50.5513 37.3352 50.9338 36.9396C52.6853 35.1267 53.6397 32.7122 53.6197 30.1417C53.6007 27.5824 52.618 25.1654 50.8509 23.3375C50.1011 22.5618 48.868 22.5419 48.0953 23.2902Z" fill="#01252A"/>
<path d="M63.2805 30.0962C63.2805 30.0913 63.281 30.0864 63.281 30.0816C63.281 30.0762 63.2796 30.0713 63.2791 30.066C63.2922 27.5353 62.8464 25.0724 61.9485 22.745C61.0111 20.3122 59.6221 18.1329 57.819 16.2673C57.0702 15.4921 55.8351 15.4712 55.0634 16.22C54.2887 16.9679 54.2678 18.2016 55.0156 18.9753C56.4543 20.4638 57.5627 22.2032 58.3115 24.1467C59.0385 26.0298 59.398 28.0265 59.3829 30.0811C59.3829 30.086 59.3844 30.0908 59.3844 30.0957C59.3844 30.1006 59.3829 30.1054 59.3829 30.1103C59.398 32.1649 59.0385 34.1621 58.3115 36.0452C57.5627 37.9882 56.4543 39.7276 55.0156 41.2161C54.2678 41.9898 54.2887 43.2235 55.0634 43.9714C55.4409 44.3373 55.9291 44.519 56.4173 44.519C56.9274 44.519 57.4365 44.3202 57.819 43.9241C59.6221 42.0585 61.0111 39.8792 61.9485 37.4469C62.8459 35.1195 63.2922 32.6566 63.2786 30.1259C63.2786 30.1206 63.2805 30.1152 63.2805 30.1098C63.281 30.1059 63.2805 30.1011 63.2805 30.0962Z" fill="#01252A"/>
</svg>
