<svg width="358" height="63" viewBox="0 0 358 63" fill="none" xmlns="http://www.w3.org/2000/svg">
<path d="M29.7653 1.68421C23.6563 -0.529734 16.6835 0.324856 11.5674 3.91277C6.93941 7.15817 4.39086 12.2 4.39086 18.1095C4.39086 19.1858 5.26344 20.0584 6.33967 20.0584C7.4159 20.0584 8.28848 19.1858 8.28848 18.1095C8.28848 13.5077 10.2475 9.59917 13.8051 7.10409C17.8981 4.23386 23.5058 3.56149 28.4372 5.34863C37.0568 8.47222 40.7815 18.0647 37.4953 28.6735C36.0902 33.2008 33.4057 37.0918 29.9378 39.6302C25.9603 42.5419 22.832 46.9464 20.8924 52.3672C20.7964 52.6367 20.6883 52.9032 20.5684 53.1672C19.4917 55.5317 17.5707 57.353 15.2979 58.1618C13.3208 58.8639 11.2263 58.7557 9.3993 57.8495C5.97329 56.1598 4.14872 51.9185 5.05979 47.7664C5.29072 46.7149 4.6252 45.6757 3.57431 45.4457C2.52438 45.2123 1.48421 45.8798 1.25327 46.9313C-0.0573033 52.9046 2.58333 58.8327 7.67265 61.3438C9.25168 62.1258 10.9569 62.52 12.6821 62.52C13.9936 62.52 15.3178 62.2915 16.605 61.834C19.8668 60.6729 22.6044 58.1023 24.1162 54.7804C24.2814 54.4179 24.4295 54.0506 24.562 53.6813C26.238 48.9961 28.8937 45.225 32.2408 42.7752C36.3777 39.7471 39.5664 35.1497 41.218 29.8287C45.1517 17.1273 40.4419 5.55375 29.7653 1.68421Z" fill="#111111"/>
<path d="M19.3061 14.5852C21.8819 12.6305 26.0791 12.4278 28.2243 15.2419C28.8752 16.0969 30.0966 16.2641 30.955 15.6112C31.8115 14.9588 31.9767 13.7365 31.3243 12.8805C28.0474 8.57896 21.5998 7.95145 16.9495 11.4812C12.021 15.2229 11.4013 21.9497 15.4411 27.8394C15.8187 28.39 16.4292 28.6857 17.0499 28.6857C17.4294 28.6857 17.8133 28.5746 18.1505 28.3442C19.0376 27.7352 19.2637 26.5225 18.6552 25.6349C16.285 22.1801 15.5673 17.4236 19.3061 14.5852Z" fill="#111111"/>
<path d="M10.7474 34.9855C9.73114 34.6259 8.61885 35.157 8.25979 36.1704C7.78671 37.503 7.75602 38.9671 8.17258 40.2938C8.60667 41.6731 9.50751 42.8488 10.7075 43.602C11.6722 44.2106 12.764 44.5214 13.8845 44.5214C14.4107 44.5214 14.9432 44.4527 15.4709 44.3139C17.0781 43.8919 18.4603 42.8659 19.3587 41.4281C19.4128 41.3423 19.464 41.2561 19.5127 41.1693C19.5595 41.0865 19.6043 41.0027 19.6477 40.9184C20.0418 40.1476 20.509 39.4636 21.0352 38.8862C21.5794 38.2908 22.1884 37.808 22.8447 37.4523C23.8659 36.8988 24.7979 36.1709 25.6135 35.2885C26.448 34.3857 27.1369 33.3465 27.6612 32.1991C28.8095 29.6821 29.1028 27.0048 28.487 24.6612C27.821 22.1257 26.124 20.0818 23.7085 18.9056C22.7409 18.4345 21.5745 18.836 21.1034 19.805C20.6323 20.7727 21.0347 21.9386 22.0028 22.4102C23.4006 23.0904 24.3389 24.2115 24.718 25.6527C25.1063 27.1295 24.8924 28.8796 24.1168 30.58C23.7645 31.3503 23.3056 32.0446 22.7516 32.6434C22.2269 33.2115 21.634 33.6768 20.9889 34.0261C19.9478 34.5903 18.9958 35.3416 18.1573 36.2596C17.3958 37.0947 16.7298 38.0652 16.1783 39.1444L16.057 39.3578C15.6838 39.9542 15.125 40.3761 14.4814 40.5447C13.8811 40.7016 13.2799 40.6168 12.783 40.3035C12.2461 39.9659 12.001 39.4753 11.8904 39.1245C11.7257 38.6002 11.7404 38.0136 11.9323 37.4728C12.2928 36.4589 11.7618 35.3451 10.7474 34.9855Z" fill="#111111"/>
<path d="M48.0953 23.2902C47.3207 24.0381 47.2997 25.2716 48.0476 26.0453C49.116 27.1508 49.7109 28.6158 49.7221 30.1714C49.7343 31.7153 49.1691 33.157 48.1304 34.2308C47.3826 35.0049 47.4035 36.2385 48.1782 36.9864C48.5558 37.3522 49.0439 37.534 49.5321 37.534C50.0422 37.534 50.5513 37.3352 50.9338 36.9396C52.6853 35.1267 53.6397 32.7122 53.6197 30.1417C53.6007 27.5824 52.618 25.1654 50.8509 23.3375C50.1011 22.5618 48.868 22.5419 48.0953 23.2902Z" fill="#111111"/>
<path d="M63.2805 30.0962C63.2805 30.0913 63.281 30.0864 63.281 30.0816C63.281 30.0762 63.2796 30.0713 63.2791 30.066C63.2922 27.5353 62.8464 25.0724 61.9485 22.745C61.0111 20.3122 59.6221 18.1329 57.819 16.2673C57.0702 15.4921 55.8351 15.4712 55.0634 16.22C54.2887 16.9679 54.2678 18.2016 55.0156 18.9753C56.4543 20.4638 57.5627 22.2032 58.3115 24.1467C59.0385 26.0298 59.398 28.0265 59.3829 30.0811C59.3829 30.086 59.3844 30.0908 59.3844 30.0957C59.3844 30.1006 59.3829 30.1054 59.3829 30.1103C59.398 32.1649 59.0385 34.1621 58.3115 36.0452C57.5627 37.9882 56.4543 39.7276 55.0156 41.2161C54.2678 41.9898 54.2887 43.2235 55.0634 43.9714C55.4409 44.3373 55.9291 44.519 56.4173 44.519C56.9274 44.519 57.4365 44.3202 57.819 43.9241C59.6221 42.0585 61.0111 39.8792 61.9485 37.4469C62.8459 35.1195 63.2922 32.6566 63.2786 30.1259C63.2786 30.1206 63.2805 30.1152 63.2805 30.1098C63.281 30.1059 63.2805 30.1011 63.2805 30.0962Z" fill="#111111"/>
<path d="M97.7454 5.28088C106.135 5.28088 110.957 12.3689 110.957 18.2035C110.957 24.3755 106.135 31.2226 97.7457 31.2226H88.1506V43.036C88.1506 43.5664 87.8617 43.8553 87.3791 43.8553H83.4735C82.9913 43.8553 82.702 43.5664 82.702 43.036V6.05242C82.702 5.61846 82.9913 5.28091 83.4735 5.28091L97.7454 5.28088ZM97.3124 25.9661C102.616 25.9661 105.557 22.0604 105.557 18.203C105.557 14.3936 102.616 10.5363 97.3124 10.5363H88.1514V25.9661H97.3124ZM131.834 21.1927C132.365 21.5302 132.509 21.819 132.172 22.3494L130.195 25.2424C129.954 25.5799 129.617 25.6764 129.183 25.5799C128.17 25.0977 127.302 24.6638 125.711 24.6638C124.12 24.6638 121.613 25.3388 120.263 28.3283V43.0836C120.263 43.5171 119.973 43.8546 119.539 43.8546H115.73C115.296 43.8546 115.007 43.5171 115.007 43.0836V20.758C115.007 20.3245 115.344 19.9865 115.73 19.9865H118.382C119.539 19.9865 120.262 21.192 120.262 22.0599V22.3979C121.95 20.8549 123.975 19.7941 126.627 19.7941C129.086 19.7941 130.918 20.5658 131.834 21.1927ZM147.167 44.1923C153.918 44.1923 159.511 38.8405 159.511 31.9453C159.511 24.9054 153.918 19.6497 147.167 19.6497C140.417 19.6497 134.824 24.9056 134.824 31.9453C134.824 38.8405 140.417 44.1923 147.167 44.1923ZM147.167 39.2745C143.021 39.2745 139.935 35.851 139.935 31.9936C139.935 27.9914 143.02 24.5678 147.167 24.5678C151.314 24.5678 154.4 27.9914 154.4 31.9936C154.4 35.851 151.314 39.2745 147.167 39.2745ZM167.322 11.1158C165.682 11.1158 164.429 9.86207 164.429 8.22279C164.429 6.63158 165.682 5.32982 167.322 5.32982C168.913 5.32982 170.166 6.63173 170.166 8.22279C170.166 9.86222 168.913 11.1158 167.322 11.1158ZM169.25 19.9867H165.585C165.103 19.9867 164.814 20.3247 164.814 20.7582V48.6769C164.814 50.8949 163.994 52.1004 162.21 52.9684C161.68 53.2095 161.583 53.547 161.776 53.981L163.609 57.549C163.85 57.983 164.187 58.0308 164.669 57.8379C168.431 56.0056 170.07 52.7268 170.07 48.6768V20.7581C170.07 20.3246 169.733 19.9867 169.25 19.9867ZM195.914 33.8735C197.65 33.8735 198.855 33.0056 198.855 30.9805C198.855 25.0498 194.274 19.649 187.235 19.649C180.533 19.649 175.277 24.953 175.277 31.8966C175.277 39.1289 180.774 44.0955 187.524 44.0955C191.815 44.0955 195.19 42.3596 197.264 39.563C197.554 39.1773 197.457 38.8879 197.168 38.5022L196.252 37.2967C195.866 36.815 195.481 36.8628 194.998 37.1521C193.456 38.4058 190.9 39.467 188.103 39.467C184.15 39.467 181.353 37.0561 180.823 33.8737L195.914 33.8735ZM180.822 29.7749C181.015 27.4604 183.185 24.4708 187.139 24.4708C191.141 24.4708 193.214 27.5086 193.358 29.7749H180.822ZM223.253 39.5152C223.542 39.9492 223.541 40.2867 223.204 40.6247C221.082 42.6499 218.286 44.1925 214.91 44.1925C208.256 44.1925 202.567 38.8407 202.567 31.9936C202.567 25.0984 208.256 19.6496 214.91 19.6496C218.285 19.6496 221.034 21.0479 223.011 23.0248C223.348 23.3628 223.348 23.7485 223.059 24.1338L221.227 26.4483C220.937 26.834 220.648 26.8823 220.07 26.4965C218.864 25.291 217.225 24.5678 215.055 24.5678C210.475 24.5678 207.63 28.1358 207.63 31.9451C207.63 35.7061 210.475 39.3225 215.104 39.3225C217.273 39.3225 218.816 38.5028 220.215 37.1045C220.745 36.6705 221.083 36.8152 221.421 37.2009L223.253 39.5152ZM242.298 42.3123C242.443 42.698 242.154 42.9382 241.816 43.1793C240.997 43.7097 239.213 44.0954 237.429 44.0954C232.269 44.0954 230.389 41.4434 230.389 35.2233V25.0491H227.544C227.11 25.0491 226.773 24.7598 226.773 24.2776V23.4579C226.773 23.0722 226.869 22.7833 227.158 22.4935C229.955 20.2273 232.173 17.8652 234.102 12.9944C234.246 12.6569 234.391 12.464 234.632 12.464H235.162C235.548 12.464 235.693 12.6569 235.693 13.0909V19.9861H240.756C241.19 19.9861 241.575 20.3241 241.575 20.8063V24.2779C241.575 24.7119 241.19 25.0494 240.756 25.0494H236.561C236.175 25.0494 235.838 25.0012 235.645 24.9047V34.7413C235.645 37.5379 235.982 39.1292 238.345 39.1292C239.357 39.1292 240.032 38.9846 240.611 38.8399C241.19 38.6953 241.575 38.9364 241.672 39.4672L242.298 42.3123ZM279.184 5.28088C279.666 5.28088 280.004 5.61889 280.004 6.05287V43.0365C280.004 43.5669 279.715 43.8557 279.281 43.8557H276.436C275.23 43.8557 274.555 43.0365 274.555 41.9275V27.6549H253.34V43.0367C253.34 43.4707 253.002 43.8559 252.569 43.8559H248.712C248.229 43.8559 247.891 43.5184 247.891 43.0362V6.05259C247.891 5.61863 248.181 5.28108 248.663 5.28108H252.52C253.002 5.28108 253.34 5.6186 253.34 6.05259V22.2059H274.555V6.05259C274.555 5.61863 274.845 5.28108 275.327 5.28108L279.184 5.28088ZM305.993 33.8735C307.728 33.8735 308.933 33.0056 308.933 30.9805C308.933 25.0498 304.352 19.649 297.313 19.649C290.611 19.649 285.355 24.953 285.355 31.8966C285.355 39.1289 290.852 44.0955 297.602 44.0955C301.894 44.0955 305.269 42.3596 307.342 39.563C307.632 39.1773 307.535 38.8879 307.246 38.5022L306.33 37.2967C305.945 36.815 305.559 36.8628 305.076 37.1521C303.534 38.4058 300.978 39.467 298.182 39.467C294.228 39.467 291.431 37.0561 290.901 33.8737L305.993 33.8735ZM290.901 29.7749C291.093 27.4604 293.263 24.4708 297.217 24.4708C301.219 24.4708 303.292 27.5086 303.437 29.7749H290.901ZM334.15 42.794C333.524 38.0686 333.477 33.6812 333.669 29.0526C333.91 23.3628 330.776 19.6983 324.894 19.6983C321.037 19.6983 317.035 20.8555 314.672 22.1575C314.238 22.3985 313.949 22.832 314.142 23.266L315.347 26.0627C315.54 26.5448 315.878 26.6895 316.504 26.4002C319.59 25.0018 322.097 24.3268 324.556 24.3268C327.16 24.3268 328.703 25.3394 328.607 28.0877C319.687 29.6303 312.888 31.2214 312.888 37.4898C312.888 41.6849 315.926 44.0954 320.844 44.0954C324.943 44.0954 327.064 42.8422 329.089 41.2992C329.329 42.7458 329.763 43.8548 330.728 43.8548H333.62C334.054 43.8548 334.199 43.3244 334.15 42.794ZM321.76 39.9496C319.783 39.9496 318.24 39.2746 318.24 37.4422C318.24 34.5009 323.64 33.5365 328.51 32.524C328.462 34.1152 328.462 36.2369 328.51 37.6351C326.919 38.8406 324.219 39.9496 321.76 39.9496ZM356.571 21.1927C357.102 21.5302 357.246 21.819 356.908 22.3494L354.932 25.2424C354.691 25.5799 354.353 25.6764 353.919 25.5799C352.907 25.0977 352.039 24.6638 350.448 24.6638C348.857 24.6638 346.349 25.3388 344.999 28.3283V43.0836C344.999 43.5171 344.71 43.8546 344.276 43.8546H340.467C340.033 43.8546 339.744 43.5171 339.744 43.0836V20.758C339.744 20.3245 340.081 19.9865 340.467 19.9865H343.119C344.276 19.9865 344.999 21.192 344.999 22.0599V22.3979C346.687 20.8549 348.712 19.7941 351.364 19.7941C353.823 19.7941 355.655 20.5658 356.571 21.1927Z" fill="#111111"/>
</svg>
